<mxfile host="app.diagrams.net" modified="2023-10-19T04:15:48.460Z" agent="Mozilla/5.0 (Windows NT 10.0; Win64; x64) AppleWebKit/537.36 (KHTML, like Gecko) Chrome/118.0.0.0 Safari/537.36" etag="azuqMFJp0lHQfSy-eb_2" version="22.0.4" type="device">
  <diagram name="Page-1" id="dbl2jL7Rwr_tr4S6rH_x">
    <mxGraphModel dx="1763" dy="542" grid="1" gridSize="10" guides="1" tooltips="1" connect="1" arrows="1" fold="1" page="1" pageScale="1" pageWidth="850" pageHeight="1100" math="0" shadow="0">
      <root>
        <mxCell id="0" />
        <mxCell id="1" parent="0" />
        <mxCell id="LXjmZv8IaE4nXNf4DQ2T-1" value="Start" style="ellipse;whiteSpace=wrap;html=1;" parent="1" vertex="1">
          <mxGeometry x="-70" y="80" width="80" height="60" as="geometry" />
        </mxCell>
        <mxCell id="LXjmZv8IaE4nXNf4DQ2T-2" value="is user&lt;br&gt;registered?" style="rhombus;whiteSpace=wrap;html=1;" parent="1" vertex="1">
          <mxGeometry x="-80" y="180" width="100" height="100" as="geometry" />
        </mxCell>
        <mxCell id="LXjmZv8IaE4nXNf4DQ2T-3" value="" style="endArrow=classic;html=1;rounded=0;exitX=0.5;exitY=1;exitDx=0;exitDy=0;entryX=0.5;entryY=0;entryDx=0;entryDy=0;" parent="1" source="LXjmZv8IaE4nXNf4DQ2T-1" target="LXjmZv8IaE4nXNf4DQ2T-2" edge="1">
          <mxGeometry width="50" height="50" relative="1" as="geometry">
            <mxPoint x="340" y="230" as="sourcePoint" />
            <mxPoint x="390" y="180" as="targetPoint" />
          </mxGeometry>
        </mxCell>
        <mxCell id="LXjmZv8IaE4nXNf4DQ2T-4" value="" style="endArrow=classic;html=1;rounded=0;exitX=1;exitY=0.5;exitDx=0;exitDy=0;" parent="1" source="LXjmZv8IaE4nXNf4DQ2T-2" edge="1">
          <mxGeometry width="50" height="50" relative="1" as="geometry">
            <mxPoint x="340" y="230" as="sourcePoint" />
            <mxPoint x="140" y="110" as="targetPoint" />
            <Array as="points">
              <mxPoint x="80" y="230" />
              <mxPoint x="80" y="110" />
            </Array>
          </mxGeometry>
        </mxCell>
        <mxCell id="LXjmZv8IaE4nXNf4DQ2T-5" value="Register" style="rounded=0;whiteSpace=wrap;html=1;" parent="1" vertex="1">
          <mxGeometry x="140" y="85" width="100" height="50" as="geometry" />
        </mxCell>
        <mxCell id="LXjmZv8IaE4nXNf4DQ2T-6" value="Login" style="rounded=0;whiteSpace=wrap;html=1;" parent="1" vertex="1">
          <mxGeometry x="140" y="280" width="100" height="50" as="geometry" />
        </mxCell>
        <mxCell id="LXjmZv8IaE4nXNf4DQ2T-7" value="No" style="text;html=1;align=center;verticalAlign=middle;whiteSpace=wrap;rounded=0;fillColor=default;" parent="1" vertex="1">
          <mxGeometry x="60" y="162" width="40" height="20" as="geometry" />
        </mxCell>
        <mxCell id="LXjmZv8IaE4nXNf4DQ2T-8" value="" style="endArrow=classic;html=1;rounded=0;exitX=0.5;exitY=1;exitDx=0;exitDy=0;entryX=0;entryY=0.5;entryDx=0;entryDy=0;" parent="1" source="LXjmZv8IaE4nXNf4DQ2T-2" target="LXjmZv8IaE4nXNf4DQ2T-6" edge="1">
          <mxGeometry width="50" height="50" relative="1" as="geometry">
            <mxPoint x="340" y="230" as="sourcePoint" />
            <mxPoint x="390" y="180" as="targetPoint" />
            <Array as="points">
              <mxPoint x="-30" y="305" />
            </Array>
          </mxGeometry>
        </mxCell>
        <mxCell id="LXjmZv8IaE4nXNf4DQ2T-9" value="Yes" style="text;html=1;strokeColor=none;fillColor=default;align=center;verticalAlign=middle;whiteSpace=wrap;rounded=0;" parent="1" vertex="1">
          <mxGeometry x="63" y="289" width="30" height="30" as="geometry" />
        </mxCell>
        <mxCell id="LXjmZv8IaE4nXNf4DQ2T-11" value="" style="endArrow=classic;html=1;rounded=0;exitX=0.5;exitY=1;exitDx=0;exitDy=0;entryX=0.5;entryY=0;entryDx=0;entryDy=0;" parent="1" source="LXjmZv8IaE4nXNf4DQ2T-5" target="LXjmZv8IaE4nXNf4DQ2T-6" edge="1">
          <mxGeometry width="50" height="50" relative="1" as="geometry">
            <mxPoint x="340" y="230" as="sourcePoint" />
            <mxPoint x="390" y="180" as="targetPoint" />
          </mxGeometry>
        </mxCell>
        <mxCell id="LXjmZv8IaE4nXNf4DQ2T-12" value="is the user&lt;br&gt;admin?" style="rhombus;whiteSpace=wrap;html=1;" parent="1" vertex="1">
          <mxGeometry x="140" y="400" width="100" height="100" as="geometry" />
        </mxCell>
        <mxCell id="LXjmZv8IaE4nXNf4DQ2T-13" value="" style="endArrow=classic;html=1;rounded=0;exitX=0.5;exitY=1;exitDx=0;exitDy=0;entryX=0.5;entryY=0;entryDx=0;entryDy=0;" parent="1" source="LXjmZv8IaE4nXNf4DQ2T-6" target="LXjmZv8IaE4nXNf4DQ2T-12" edge="1">
          <mxGeometry width="50" height="50" relative="1" as="geometry">
            <mxPoint x="340" y="380" as="sourcePoint" />
            <mxPoint x="390" y="330" as="targetPoint" />
          </mxGeometry>
        </mxCell>
        <mxCell id="LXjmZv8IaE4nXNf4DQ2T-14" value="" style="endArrow=classic;html=1;rounded=0;exitX=1;exitY=0.5;exitDx=0;exitDy=0;" parent="1" source="LXjmZv8IaE4nXNf4DQ2T-12" edge="1">
          <mxGeometry width="50" height="50" relative="1" as="geometry">
            <mxPoint x="340" y="380" as="sourcePoint" />
            <mxPoint x="340" y="450" as="targetPoint" />
          </mxGeometry>
        </mxCell>
        <mxCell id="LXjmZv8IaE4nXNf4DQ2T-15" value="No" style="text;html=1;align=center;verticalAlign=middle;whiteSpace=wrap;rounded=0;fillColor=default;" parent="1" vertex="1">
          <mxGeometry x="266" y="438" width="40" height="20" as="geometry" />
        </mxCell>
        <mxCell id="LXjmZv8IaE4nXNf4DQ2T-17" value="Go to Home Page" style="rounded=0;whiteSpace=wrap;html=1;" parent="1" vertex="1">
          <mxGeometry x="340" y="425" width="100" height="50" as="geometry" />
        </mxCell>
        <mxCell id="LXjmZv8IaE4nXNf4DQ2T-18" value="View Dashboard" style="rounded=0;whiteSpace=wrap;html=1;" parent="1" vertex="1">
          <mxGeometry x="340" y="319" width="100" height="50" as="geometry" />
        </mxCell>
        <mxCell id="LXjmZv8IaE4nXNf4DQ2T-19" value="View Profile Info" style="rounded=0;whiteSpace=wrap;html=1;" parent="1" vertex="1">
          <mxGeometry x="340" y="230" width="100" height="50" as="geometry" />
        </mxCell>
        <mxCell id="LXjmZv8IaE4nXNf4DQ2T-20" value="" style="endArrow=classic;html=1;rounded=0;exitX=0.75;exitY=0;exitDx=0;exitDy=0;entryX=1;entryY=0.5;entryDx=0;entryDy=0;" parent="1" source="LXjmZv8IaE4nXNf4DQ2T-17" target="LXjmZv8IaE4nXNf4DQ2T-18" edge="1">
          <mxGeometry width="50" height="50" relative="1" as="geometry">
            <mxPoint x="450" y="430" as="sourcePoint" />
            <mxPoint x="500" y="380" as="targetPoint" />
            <Array as="points">
              <mxPoint x="415" y="400" />
              <mxPoint x="480" y="400" />
              <mxPoint x="480" y="344" />
            </Array>
          </mxGeometry>
        </mxCell>
        <mxCell id="LXjmZv8IaE4nXNf4DQ2T-21" value="" style="endArrow=classic;html=1;rounded=0;exitX=0.75;exitY=0;exitDx=0;exitDy=0;entryX=1;entryY=0.5;entryDx=0;entryDy=0;" parent="1" source="LXjmZv8IaE4nXNf4DQ2T-17" edge="1">
          <mxGeometry width="50" height="50" relative="1" as="geometry">
            <mxPoint x="440" y="357" as="sourcePoint" />
            <mxPoint x="440" y="251" as="targetPoint" />
            <Array as="points">
              <mxPoint x="415" y="400" />
              <mxPoint x="480" y="400" />
              <mxPoint x="480" y="357" />
              <mxPoint x="480" y="251" />
            </Array>
          </mxGeometry>
        </mxCell>
        <mxCell id="LXjmZv8IaE4nXNf4DQ2T-22" value="Do you want&lt;br&gt;to edit info?" style="rhombus;whiteSpace=wrap;html=1;" parent="1" vertex="1">
          <mxGeometry x="340" y="90" width="100" height="100" as="geometry" />
        </mxCell>
        <mxCell id="LXjmZv8IaE4nXNf4DQ2T-23" value="" style="endArrow=classic;html=1;rounded=0;exitX=0.5;exitY=0;exitDx=0;exitDy=0;entryX=0.5;entryY=1;entryDx=0;entryDy=0;" parent="1" source="LXjmZv8IaE4nXNf4DQ2T-19" target="LXjmZv8IaE4nXNf4DQ2T-22" edge="1">
          <mxGeometry width="50" height="50" relative="1" as="geometry">
            <mxPoint x="440" y="300" as="sourcePoint" />
            <mxPoint x="490" y="250" as="targetPoint" />
          </mxGeometry>
        </mxCell>
        <mxCell id="LXjmZv8IaE4nXNf4DQ2T-24" value="" style="endArrow=classic;html=1;rounded=0;exitX=0;exitY=0.5;exitDx=0;exitDy=0;entryX=0.195;entryY=0.036;entryDx=0;entryDy=0;entryPerimeter=0;" parent="1" source="LXjmZv8IaE4nXNf4DQ2T-22" target="LXjmZv8IaE4nXNf4DQ2T-17" edge="1">
          <mxGeometry width="50" height="50" relative="1" as="geometry">
            <mxPoint x="440" y="300" as="sourcePoint" />
            <mxPoint x="490" y="250" as="targetPoint" />
            <Array as="points">
              <mxPoint x="280" y="140" />
              <mxPoint x="280" y="390" />
              <mxPoint x="360" y="390" />
            </Array>
          </mxGeometry>
        </mxCell>
        <mxCell id="LXjmZv8IaE4nXNf4DQ2T-25" value="No" style="text;html=1;align=center;verticalAlign=middle;whiteSpace=wrap;rounded=0;fillColor=default;" parent="1" vertex="1">
          <mxGeometry x="262" y="170" width="40" height="20" as="geometry" />
        </mxCell>
        <mxCell id="LXjmZv8IaE4nXNf4DQ2T-27" value="Edit Information" style="rounded=0;whiteSpace=wrap;html=1;" parent="1" vertex="1">
          <mxGeometry x="520" y="115" width="100" height="50" as="geometry" />
        </mxCell>
        <mxCell id="LXjmZv8IaE4nXNf4DQ2T-28" value="" style="endArrow=classic;html=1;rounded=0;exitX=1;exitY=0.5;exitDx=0;exitDy=0;entryX=0;entryY=0.5;entryDx=0;entryDy=0;" parent="1" source="LXjmZv8IaE4nXNf4DQ2T-22" target="LXjmZv8IaE4nXNf4DQ2T-27" edge="1">
          <mxGeometry width="50" height="50" relative="1" as="geometry">
            <mxPoint x="440" y="300" as="sourcePoint" />
            <mxPoint x="490" y="250" as="targetPoint" />
          </mxGeometry>
        </mxCell>
        <mxCell id="LXjmZv8IaE4nXNf4DQ2T-29" value="Yes" style="text;html=1;strokeColor=none;fillColor=default;align=center;verticalAlign=middle;whiteSpace=wrap;rounded=0;" parent="1" vertex="1">
          <mxGeometry x="460" y="126" width="30" height="30" as="geometry" />
        </mxCell>
        <mxCell id="LXjmZv8IaE4nXNf4DQ2T-30" value="Contact Info" style="rounded=0;whiteSpace=wrap;html=1;" parent="1" vertex="1">
          <mxGeometry x="690" y="190" width="100" height="50" as="geometry" />
        </mxCell>
        <mxCell id="LXjmZv8IaE4nXNf4DQ2T-31" value="Personal Info" style="rounded=0;whiteSpace=wrap;html=1;" parent="1" vertex="1">
          <mxGeometry x="690" y="115" width="100" height="50" as="geometry" />
        </mxCell>
        <mxCell id="LXjmZv8IaE4nXNf4DQ2T-32" value="Government ID Info" style="rounded=0;whiteSpace=wrap;html=1;" parent="1" vertex="1">
          <mxGeometry x="690" y="260" width="100" height="50" as="geometry" />
        </mxCell>
        <mxCell id="LXjmZv8IaE4nXNf4DQ2T-33" value="" style="endArrow=classic;html=1;rounded=0;exitX=1;exitY=0.5;exitDx=0;exitDy=0;entryX=0;entryY=0.5;entryDx=0;entryDy=0;" parent="1" source="LXjmZv8IaE4nXNf4DQ2T-27" target="LXjmZv8IaE4nXNf4DQ2T-31" edge="1">
          <mxGeometry width="50" height="50" relative="1" as="geometry">
            <mxPoint x="440" y="300" as="sourcePoint" />
            <mxPoint x="490" y="250" as="targetPoint" />
          </mxGeometry>
        </mxCell>
        <mxCell id="LXjmZv8IaE4nXNf4DQ2T-34" value="" style="endArrow=classic;html=1;rounded=0;exitX=1;exitY=0.5;exitDx=0;exitDy=0;" parent="1" source="LXjmZv8IaE4nXNf4DQ2T-27" edge="1">
          <mxGeometry width="50" height="50" relative="1" as="geometry">
            <mxPoint x="640" y="260" as="sourcePoint" />
            <mxPoint x="690" y="210" as="targetPoint" />
            <Array as="points">
              <mxPoint x="650" y="140" />
              <mxPoint x="650" y="210" />
            </Array>
          </mxGeometry>
        </mxCell>
        <mxCell id="LXjmZv8IaE4nXNf4DQ2T-35" value="" style="endArrow=classic;html=1;rounded=0;entryX=0;entryY=0.5;entryDx=0;entryDy=0;" parent="1" target="LXjmZv8IaE4nXNf4DQ2T-32" edge="1">
          <mxGeometry width="50" height="50" relative="1" as="geometry">
            <mxPoint x="620" y="140" as="sourcePoint" />
            <mxPoint x="700" y="220" as="targetPoint" />
            <Array as="points">
              <mxPoint x="650" y="140" />
              <mxPoint x="650" y="285" />
            </Array>
          </mxGeometry>
        </mxCell>
        <mxCell id="LXjmZv8IaE4nXNf4DQ2T-36" value="" style="endArrow=none;html=1;rounded=0;exitX=1;exitY=0.5;exitDx=0;exitDy=0;" parent="1" source="LXjmZv8IaE4nXNf4DQ2T-31" edge="1">
          <mxGeometry width="50" height="50" relative="1" as="geometry">
            <mxPoint x="440" y="300" as="sourcePoint" />
            <mxPoint x="830" y="140" as="targetPoint" />
          </mxGeometry>
        </mxCell>
        <mxCell id="LXjmZv8IaE4nXNf4DQ2T-37" value="" style="endArrow=none;html=1;rounded=0;" parent="1" edge="1">
          <mxGeometry width="50" height="50" relative="1" as="geometry">
            <mxPoint x="830" y="340" as="sourcePoint" />
            <mxPoint x="830" y="140" as="targetPoint" />
          </mxGeometry>
        </mxCell>
        <mxCell id="LXjmZv8IaE4nXNf4DQ2T-38" value="" style="endArrow=none;html=1;rounded=0;exitX=1;exitY=0.5;exitDx=0;exitDy=0;" parent="1" edge="1">
          <mxGeometry width="50" height="50" relative="1" as="geometry">
            <mxPoint x="790" y="214.41" as="sourcePoint" />
            <mxPoint x="830" y="214.41" as="targetPoint" />
          </mxGeometry>
        </mxCell>
        <mxCell id="LXjmZv8IaE4nXNf4DQ2T-39" value="" style="endArrow=none;html=1;rounded=0;exitX=1;exitY=0.5;exitDx=0;exitDy=0;" parent="1" edge="1">
          <mxGeometry width="50" height="50" relative="1" as="geometry">
            <mxPoint x="790" y="289" as="sourcePoint" />
            <mxPoint x="830" y="289" as="targetPoint" />
          </mxGeometry>
        </mxCell>
        <mxCell id="LXjmZv8IaE4nXNf4DQ2T-40" value="" style="endArrow=classic;html=1;rounded=0;" parent="1" edge="1">
          <mxGeometry width="50" height="50" relative="1" as="geometry">
            <mxPoint x="830" y="340" as="sourcePoint" />
            <mxPoint x="830" y="370" as="targetPoint" />
          </mxGeometry>
        </mxCell>
        <mxCell id="LXjmZv8IaE4nXNf4DQ2T-41" value="Save to Database" style="shape=cylinder3;whiteSpace=wrap;html=1;boundedLbl=1;backgroundOutline=1;size=15;" parent="1" vertex="1">
          <mxGeometry x="796" y="369" width="67" height="71" as="geometry" />
        </mxCell>
        <mxCell id="LXjmZv8IaE4nXNf4DQ2T-42" value="Do you want&lt;br&gt;to edit more?" style="rhombus;whiteSpace=wrap;html=1;" parent="1" vertex="1">
          <mxGeometry x="640" y="354.5" width="100" height="100" as="geometry" />
        </mxCell>
        <mxCell id="LXjmZv8IaE4nXNf4DQ2T-43" value="" style="endArrow=classic;html=1;rounded=0;exitX=0;exitY=0.5;exitDx=0;exitDy=0;exitPerimeter=0;entryX=1;entryY=0.5;entryDx=0;entryDy=0;" parent="1" source="LXjmZv8IaE4nXNf4DQ2T-41" target="LXjmZv8IaE4nXNf4DQ2T-42" edge="1">
          <mxGeometry width="50" height="50" relative="1" as="geometry">
            <mxPoint x="440" y="300" as="sourcePoint" />
            <mxPoint x="490" y="250" as="targetPoint" />
          </mxGeometry>
        </mxCell>
        <mxCell id="LXjmZv8IaE4nXNf4DQ2T-44" value="" style="endArrow=classic;html=1;rounded=0;entryX=0.5;entryY=1;entryDx=0;entryDy=0;exitX=0;exitY=0.5;exitDx=0;exitDy=0;" parent="1" source="LXjmZv8IaE4nXNf4DQ2T-42" target="LXjmZv8IaE4nXNf4DQ2T-27" edge="1">
          <mxGeometry width="50" height="50" relative="1" as="geometry">
            <mxPoint x="460" y="440" as="sourcePoint" />
            <mxPoint x="510" y="390" as="targetPoint" />
            <Array as="points">
              <mxPoint x="570" y="405" />
            </Array>
          </mxGeometry>
        </mxCell>
        <mxCell id="LXjmZv8IaE4nXNf4DQ2T-45" value="" style="endArrow=classic;html=1;rounded=0;exitX=0.5;exitY=1;exitDx=0;exitDy=0;" parent="1" source="LXjmZv8IaE4nXNf4DQ2T-42" edge="1">
          <mxGeometry width="50" height="50" relative="1" as="geometry">
            <mxPoint x="390" y="508" as="sourcePoint" />
            <mxPoint x="440" y="458" as="targetPoint" />
            <Array as="points">
              <mxPoint x="690" y="460" />
              <mxPoint x="670" y="460" />
            </Array>
          </mxGeometry>
        </mxCell>
        <mxCell id="LXjmZv8IaE4nXNf4DQ2T-47" value="No" style="text;html=1;align=center;verticalAlign=middle;whiteSpace=wrap;rounded=0;fillColor=default;" parent="1" vertex="1">
          <mxGeometry x="554" y="451" width="40" height="20" as="geometry" />
        </mxCell>
        <mxCell id="LXjmZv8IaE4nXNf4DQ2T-48" value="Yes" style="text;html=1;strokeColor=none;fillColor=default;align=center;verticalAlign=middle;whiteSpace=wrap;rounded=0;" parent="1" vertex="1">
          <mxGeometry x="556" y="330" width="30" height="30" as="geometry" />
        </mxCell>
        <mxCell id="LXjmZv8IaE4nXNf4DQ2T-49" value="Process Real Property Tax" style="rounded=0;whiteSpace=wrap;html=1;" parent="1" vertex="1">
          <mxGeometry x="340" y="520" width="100" height="50" as="geometry" />
        </mxCell>
        <mxCell id="LXjmZv8IaE4nXNf4DQ2T-50" value="Change Account Settings" style="rounded=0;whiteSpace=wrap;html=1;" parent="1" vertex="1">
          <mxGeometry x="340" y="700" width="100" height="50" as="geometry" />
        </mxCell>
        <mxCell id="LXjmZv8IaE4nXNf4DQ2T-51" value="" style="endArrow=classic;html=1;rounded=0;exitX=0.36;exitY=1.006;exitDx=0;exitDy=0;entryX=0;entryY=0.5;entryDx=0;entryDy=0;exitPerimeter=0;" parent="1" source="LXjmZv8IaE4nXNf4DQ2T-17" target="LXjmZv8IaE4nXNf4DQ2T-49" edge="1">
          <mxGeometry width="50" height="50" relative="1" as="geometry">
            <mxPoint x="560" y="480" as="sourcePoint" />
            <mxPoint x="490" y="560" as="targetPoint" />
            <Array as="points">
              <mxPoint x="376" y="500" />
              <mxPoint x="300" y="500" />
              <mxPoint x="300" y="545" />
            </Array>
          </mxGeometry>
        </mxCell>
        <mxCell id="LXjmZv8IaE4nXNf4DQ2T-52" value="" style="endArrow=classic;html=1;rounded=0;entryX=0;entryY=0.5;entryDx=0;entryDy=0;" parent="1" target="LXjmZv8IaE4nXNf4DQ2T-50" edge="1">
          <mxGeometry width="50" height="50" relative="1" as="geometry">
            <mxPoint x="377" y="500" as="sourcePoint" />
            <mxPoint x="340" y="545" as="targetPoint" />
            <Array as="points">
              <mxPoint x="377" y="500" />
              <mxPoint x="300" y="500" />
              <mxPoint x="300" y="545" />
              <mxPoint x="300" y="725" />
            </Array>
          </mxGeometry>
        </mxCell>
        <mxCell id="LXjmZv8IaE4nXNf4DQ2T-53" value="Process Tax Payment?" style="rhombus;whiteSpace=wrap;html=1;" parent="1" vertex="1">
          <mxGeometry x="780" y="495" width="100" height="100" as="geometry" />
        </mxCell>
        <mxCell id="LXjmZv8IaE4nXNf4DQ2T-54" value="" style="endArrow=classic;html=1;rounded=0;exitX=1;exitY=0.5;exitDx=0;exitDy=0;entryX=0;entryY=0.5;entryDx=0;entryDy=0;" parent="1" source="LXjmZv8IaE4nXNf4DQ2T-49" target="LXjmZv8IaE4nXNf4DQ2T-53" edge="1">
          <mxGeometry width="50" height="50" relative="1" as="geometry">
            <mxPoint x="560" y="480" as="sourcePoint" />
            <mxPoint x="610" y="430" as="targetPoint" />
          </mxGeometry>
        </mxCell>
        <mxCell id="LXjmZv8IaE4nXNf4DQ2T-55" value="" style="endArrow=classic;html=1;rounded=0;exitX=0;exitY=0.5;exitDx=0;exitDy=0;entryX=0.5;entryY=1;entryDx=0;entryDy=0;" parent="1" source="LXjmZv8IaE4nXNf4DQ2T-71" target="LXjmZv8IaE4nXNf4DQ2T-17" edge="1">
          <mxGeometry width="50" height="50" relative="1" as="geometry">
            <mxPoint x="510" y="470" as="sourcePoint" />
            <mxPoint x="560" y="420" as="targetPoint" />
            <Array as="points">
              <mxPoint x="910" y="480" />
              <mxPoint x="650" y="480" />
              <mxPoint x="650" y="495" />
              <mxPoint x="390" y="495" />
            </Array>
          </mxGeometry>
        </mxCell>
        <mxCell id="LXjmZv8IaE4nXNf4DQ2T-57" value="No" style="text;html=1;align=center;verticalAlign=middle;whiteSpace=wrap;rounded=0;fillColor=default;" parent="1" vertex="1">
          <mxGeometry x="810" y="469" width="40" height="20" as="geometry" />
        </mxCell>
        <mxCell id="LXjmZv8IaE4nXNf4DQ2T-58" value="" style="endArrow=classic;html=1;rounded=0;exitX=0.5;exitY=1;exitDx=0;exitDy=0;" parent="1" source="LXjmZv8IaE4nXNf4DQ2T-53" edge="1">
          <mxGeometry width="50" height="50" relative="1" as="geometry">
            <mxPoint x="680" y="590" as="sourcePoint" />
            <mxPoint x="830" y="670" as="targetPoint" />
          </mxGeometry>
        </mxCell>
        <mxCell id="LXjmZv8IaE4nXNf4DQ2T-60" value="Fill Up Tax Info" style="rounded=0;whiteSpace=wrap;html=1;" parent="1" vertex="1">
          <mxGeometry x="978" y="670" width="100" height="50" as="geometry" />
        </mxCell>
        <mxCell id="LXjmZv8IaE4nXNf4DQ2T-61" value="Proceed to Payment" style="rounded=0;whiteSpace=wrap;html=1;" parent="1" vertex="1">
          <mxGeometry x="979" y="740" width="100" height="50" as="geometry" />
        </mxCell>
        <mxCell id="LXjmZv8IaE4nXNf4DQ2T-63" value="Save to Database" style="shape=cylinder3;whiteSpace=wrap;html=1;boundedLbl=1;backgroundOutline=1;size=15;" parent="1" vertex="1">
          <mxGeometry x="994.5" y="810" width="67" height="71" as="geometry" />
        </mxCell>
        <mxCell id="LXjmZv8IaE4nXNf4DQ2T-64" value="" style="endArrow=classic;html=1;rounded=0;exitX=1;exitY=0.5;exitDx=0;exitDy=0;entryX=1;entryY=0.25;entryDx=0;entryDy=0;" parent="1" source="LXjmZv8IaE4nXNf4DQ2T-60" target="LXjmZv8IaE4nXNf4DQ2T-61" edge="1">
          <mxGeometry width="50" height="50" relative="1" as="geometry">
            <mxPoint x="878" y="810" as="sourcePoint" />
            <mxPoint x="928" y="760" as="targetPoint" />
            <Array as="points">
              <mxPoint x="1108" y="695" />
              <mxPoint x="1108" y="753" />
            </Array>
          </mxGeometry>
        </mxCell>
        <mxCell id="LXjmZv8IaE4nXNf4DQ2T-66" value="" style="endArrow=classic;html=1;rounded=0;exitX=1;exitY=0.5;exitDx=0;exitDy=0;entryX=1;entryY=0.5;entryDx=0;entryDy=0;entryPerimeter=0;" parent="1" target="LXjmZv8IaE4nXNf4DQ2T-63" edge="1">
          <mxGeometry width="50" height="50" relative="1" as="geometry">
            <mxPoint x="1079" y="780" as="sourcePoint" />
            <mxPoint x="1080" y="838" as="targetPoint" />
            <Array as="points">
              <mxPoint x="1108" y="780" />
              <mxPoint x="1108" y="846" />
            </Array>
          </mxGeometry>
        </mxCell>
        <mxCell id="LXjmZv8IaE4nXNf4DQ2T-67" value="View Transaction History" style="rounded=0;whiteSpace=wrap;html=1;" parent="1" vertex="1">
          <mxGeometry x="340" y="603" width="100" height="50" as="geometry" />
        </mxCell>
        <mxCell id="LXjmZv8IaE4nXNf4DQ2T-68" value="" style="endArrow=classic;html=1;rounded=0;exitX=1;exitY=0.5;exitDx=0;exitDy=0;entryX=0.5;entryY=1;entryDx=0;entryDy=0;" parent="1" source="LXjmZv8IaE4nXNf4DQ2T-53" edge="1" target="LXjmZv8IaE4nXNf4DQ2T-71">
          <mxGeometry width="50" height="50" relative="1" as="geometry">
            <mxPoint x="1050" y="600" as="sourcePoint" />
            <mxPoint x="960" y="490" as="targetPoint" />
            <Array as="points">
              <mxPoint x="960" y="545" />
            </Array>
          </mxGeometry>
        </mxCell>
        <mxCell id="LXjmZv8IaE4nXNf4DQ2T-71" value="Process Tax Clearance?" style="rhombus;whiteSpace=wrap;html=1;" parent="1" vertex="1">
          <mxGeometry x="910" y="430" width="100" height="100" as="geometry" />
        </mxCell>
        <mxCell id="LXjmZv8IaE4nXNf4DQ2T-72" value="Yes" style="text;html=1;strokeColor=none;fillColor=default;align=center;verticalAlign=middle;whiteSpace=wrap;rounded=0;" parent="1" vertex="1">
          <mxGeometry x="815" y="613" width="30" height="30" as="geometry" />
        </mxCell>
        <mxCell id="LXjmZv8IaE4nXNf4DQ2T-73" value="No" style="text;html=1;align=center;verticalAlign=middle;whiteSpace=wrap;rounded=0;fillColor=default;" parent="1" vertex="1">
          <mxGeometry x="900" y="535" width="40" height="20" as="geometry" />
        </mxCell>
        <mxCell id="LXjmZv8IaE4nXNf4DQ2T-74" value="" style="endArrow=classic;html=1;rounded=0;exitX=1;exitY=0.5;exitDx=0;exitDy=0;" parent="1" source="LXjmZv8IaE4nXNf4DQ2T-71" target="LXjmZv8IaE4nXNf4DQ2T-60" edge="1">
          <mxGeometry width="50" height="50" relative="1" as="geometry">
            <mxPoint x="640" y="450" as="sourcePoint" />
            <mxPoint x="1090" y="440" as="targetPoint" />
            <Array as="points">
              <mxPoint x="1028" y="480" />
            </Array>
          </mxGeometry>
        </mxCell>
        <mxCell id="LXjmZv8IaE4nXNf4DQ2T-75" value="Yes" style="text;html=1;strokeColor=none;fillColor=default;align=center;verticalAlign=middle;whiteSpace=wrap;rounded=0;" parent="1" vertex="1">
          <mxGeometry x="1016.5" y="526" width="30" height="30" as="geometry" />
        </mxCell>
        <mxCell id="LXjmZv8IaE4nXNf4DQ2T-76" value="Proceed to Payment" style="rounded=0;whiteSpace=wrap;html=1;" parent="1" vertex="1">
          <mxGeometry x="780" y="740" width="100" height="50" as="geometry" />
        </mxCell>
        <mxCell id="LXjmZv8IaE4nXNf4DQ2T-77" value="Payment Status" style="rounded=0;whiteSpace=wrap;html=1;" parent="1" vertex="1">
          <mxGeometry x="781" y="810" width="100" height="50" as="geometry" />
        </mxCell>
        <mxCell id="LXjmZv8IaE4nXNf4DQ2T-78" value="Save to Database" style="shape=cylinder3;whiteSpace=wrap;html=1;boundedLbl=1;backgroundOutline=1;size=15;" parent="1" vertex="1">
          <mxGeometry x="796.5" y="880" width="67" height="71" as="geometry" />
        </mxCell>
        <mxCell id="LXjmZv8IaE4nXNf4DQ2T-79" value="" style="endArrow=classic;html=1;rounded=0;exitX=1;exitY=0.5;exitDx=0;exitDy=0;entryX=1;entryY=0.25;entryDx=0;entryDy=0;" parent="1" source="LXjmZv8IaE4nXNf4DQ2T-76" target="LXjmZv8IaE4nXNf4DQ2T-77" edge="1">
          <mxGeometry width="50" height="50" relative="1" as="geometry">
            <mxPoint x="680" y="880" as="sourcePoint" />
            <mxPoint x="730" y="830" as="targetPoint" />
            <Array as="points">
              <mxPoint x="910" y="765" />
              <mxPoint x="910" y="823" />
            </Array>
          </mxGeometry>
        </mxCell>
        <mxCell id="LXjmZv8IaE4nXNf4DQ2T-80" value="" style="endArrow=classic;html=1;rounded=0;exitX=1;exitY=0.5;exitDx=0;exitDy=0;entryX=1;entryY=0.5;entryDx=0;entryDy=0;entryPerimeter=0;" parent="1" target="LXjmZv8IaE4nXNf4DQ2T-78" edge="1">
          <mxGeometry width="50" height="50" relative="1" as="geometry">
            <mxPoint x="881" y="850" as="sourcePoint" />
            <mxPoint x="882" y="908" as="targetPoint" />
            <Array as="points">
              <mxPoint x="910" y="850" />
              <mxPoint x="910" y="916" />
            </Array>
          </mxGeometry>
        </mxCell>
        <mxCell id="LXjmZv8IaE4nXNf4DQ2T-81" value="Fill Up Payer Info" style="rounded=0;whiteSpace=wrap;html=1;" parent="1" vertex="1">
          <mxGeometry x="780" y="670" width="100" height="50" as="geometry" />
        </mxCell>
        <mxCell id="LXjmZv8IaE4nXNf4DQ2T-82" value="" style="endArrow=classic;html=1;rounded=0;exitX=1;exitY=0.25;exitDx=0;exitDy=0;entryX=1;entryY=0.25;entryDx=0;entryDy=0;" parent="1" source="LXjmZv8IaE4nXNf4DQ2T-81" target="LXjmZv8IaE4nXNf4DQ2T-76" edge="1">
          <mxGeometry width="50" height="50" relative="1" as="geometry">
            <mxPoint x="680" y="720" as="sourcePoint" />
            <mxPoint x="730" y="670" as="targetPoint" />
            <Array as="points">
              <mxPoint x="910" y="682" />
              <mxPoint x="910" y="752" />
            </Array>
          </mxGeometry>
        </mxCell>
        <mxCell id="LXjmZv8IaE4nXNf4DQ2T-86" value="Download Transaction?" style="rhombus;whiteSpace=wrap;html=1;" parent="1" vertex="1">
          <mxGeometry x="530" y="670" width="100" height="100" as="geometry" />
        </mxCell>
        <mxCell id="LXjmZv8IaE4nXNf4DQ2T-87" value="" style="endArrow=classic;html=1;rounded=0;exitX=1;exitY=0.75;exitDx=0;exitDy=0;entryX=0.5;entryY=0;entryDx=0;entryDy=0;" parent="1" source="LXjmZv8IaE4nXNf4DQ2T-67" target="LXjmZv8IaE4nXNf4DQ2T-86" edge="1">
          <mxGeometry width="50" height="50" relative="1" as="geometry">
            <mxPoint x="580" y="810" as="sourcePoint" />
            <mxPoint x="630" y="760" as="targetPoint" />
            <Array as="points">
              <mxPoint x="580" y="640" />
            </Array>
          </mxGeometry>
        </mxCell>
        <mxCell id="LXjmZv8IaE4nXNf4DQ2T-88" value="" style="endArrow=classic;html=1;rounded=0;exitX=1;exitY=0.5;exitDx=0;exitDy=0;" parent="1" source="LXjmZv8IaE4nXNf4DQ2T-86" edge="1">
          <mxGeometry width="50" height="50" relative="1" as="geometry">
            <mxPoint x="660" y="830" as="sourcePoint" />
            <mxPoint x="690" y="800" as="targetPoint" />
            <Array as="points">
              <mxPoint x="690" y="720" />
            </Array>
          </mxGeometry>
        </mxCell>
        <mxCell id="LXjmZv8IaE4nXNf4DQ2T-89" value="Yes" style="text;html=1;strokeColor=none;fillColor=default;align=center;verticalAlign=middle;whiteSpace=wrap;rounded=0;" parent="1" vertex="1">
          <mxGeometry x="674" y="740" width="30" height="30" as="geometry" />
        </mxCell>
        <mxCell id="LXjmZv8IaE4nXNf4DQ2T-90" value="Download Transaction" style="rounded=0;whiteSpace=wrap;html=1;" parent="1" vertex="1">
          <mxGeometry x="640" y="800" width="100" height="50" as="geometry" />
        </mxCell>
        <mxCell id="LXjmZv8IaE4nXNf4DQ2T-93" value="Edit Account Settings" style="rounded=0;whiteSpace=wrap;html=1;" parent="1" vertex="1">
          <mxGeometry x="400" y="800" width="100" height="50" as="geometry" />
        </mxCell>
        <mxCell id="LXjmZv8IaE4nXNf4DQ2T-95" value="" style="endArrow=classic;html=1;rounded=0;exitX=1;exitY=0.5;exitDx=0;exitDy=0;entryX=0.5;entryY=0;entryDx=0;entryDy=0;" parent="1" source="LXjmZv8IaE4nXNf4DQ2T-50" target="LXjmZv8IaE4nXNf4DQ2T-93" edge="1">
          <mxGeometry width="50" height="50" relative="1" as="geometry">
            <mxPoint x="660" y="830" as="sourcePoint" />
            <mxPoint x="710" y="780" as="targetPoint" />
            <Array as="points">
              <mxPoint x="450" y="725" />
            </Array>
          </mxGeometry>
        </mxCell>
        <mxCell id="LXjmZv8IaE4nXNf4DQ2T-96" value="" style="endArrow=none;html=1;rounded=0;" parent="1" edge="1">
          <mxGeometry width="50" height="50" relative="1" as="geometry">
            <mxPoint x="450" y="910" as="sourcePoint" />
            <mxPoint x="450" y="850" as="targetPoint" />
          </mxGeometry>
        </mxCell>
        <mxCell id="LXjmZv8IaE4nXNf4DQ2T-97" value="" style="endArrow=none;html=1;rounded=0;entryX=0.5;entryY=1;entryDx=0;entryDy=0;" parent="1" target="LXjmZv8IaE4nXNf4DQ2T-90" edge="1">
          <mxGeometry width="50" height="50" relative="1" as="geometry">
            <mxPoint x="580" y="910" as="sourcePoint" />
            <mxPoint x="650" y="680" as="targetPoint" />
            <Array as="points">
              <mxPoint x="690" y="910" />
            </Array>
          </mxGeometry>
        </mxCell>
        <mxCell id="Ocl6EnnyxfNxjE2hLtgI-1" value="Do you want to Sign Out?" style="rhombus;whiteSpace=wrap;html=1;" parent="1" vertex="1">
          <mxGeometry x="978" y="960" width="100" height="100" as="geometry" />
        </mxCell>
        <mxCell id="Ocl6EnnyxfNxjE2hLtgI-5" value="" style="endArrow=classic;html=1;rounded=0;" parent="1" target="Ocl6EnnyxfNxjE2hLtgI-1" edge="1">
          <mxGeometry width="50" height="50" relative="1" as="geometry">
            <mxPoint x="1030" y="880" as="sourcePoint" />
            <mxPoint x="1090" y="840" as="targetPoint" />
          </mxGeometry>
        </mxCell>
        <mxCell id="Ocl6EnnyxfNxjE2hLtgI-6" value="" style="endArrow=classic;html=1;rounded=0;entryX=0;entryY=0.5;entryDx=0;entryDy=0;" parent="1" target="Ocl6EnnyxfNxjE2hLtgI-1" edge="1">
          <mxGeometry width="50" height="50" relative="1" as="geometry">
            <mxPoint x="830" y="951" as="sourcePoint" />
            <mxPoint x="880" y="901" as="targetPoint" />
            <Array as="points">
              <mxPoint x="830" y="1010" />
            </Array>
          </mxGeometry>
        </mxCell>
        <mxCell id="Ocl6EnnyxfNxjE2hLtgI-7" value="" style="endArrow=classic;html=1;rounded=0;entryX=1;entryY=0.25;entryDx=0;entryDy=0;exitX=0.5;exitY=1;exitDx=0;exitDy=0;" parent="1" source="Ocl6EnnyxfNxjE2hLtgI-1" target="LXjmZv8IaE4nXNf4DQ2T-67" edge="1">
          <mxGeometry width="50" height="50" relative="1" as="geometry">
            <mxPoint x="580" y="820" as="sourcePoint" />
            <mxPoint x="630" y="770" as="targetPoint" />
            <Array as="points">
              <mxPoint x="760" y="1060" />
              <mxPoint x="760" y="616" />
            </Array>
          </mxGeometry>
        </mxCell>
        <mxCell id="Ocl6EnnyxfNxjE2hLtgI-8" value="No" style="text;html=1;align=center;verticalAlign=middle;whiteSpace=wrap;rounded=0;fillColor=default;" parent="1" vertex="1">
          <mxGeometry x="910" y="1049" width="40" height="20" as="geometry" />
        </mxCell>
        <mxCell id="Ocl6EnnyxfNxjE2hLtgI-10" value="Sign Out User" style="rounded=0;whiteSpace=wrap;html=1;" parent="1" vertex="1">
          <mxGeometry x="400" y="1080" width="100" height="50" as="geometry" />
        </mxCell>
        <mxCell id="Ocl6EnnyxfNxjE2hLtgI-11" value="End" style="ellipse;whiteSpace=wrap;html=1;" parent="1" vertex="1">
          <mxGeometry x="410" y="1160" width="80" height="60" as="geometry" />
        </mxCell>
        <mxCell id="Ocl6EnnyxfNxjE2hLtgI-13" value="" style="endArrow=classic;html=1;rounded=0;exitX=1;exitY=0.5;exitDx=0;exitDy=0;entryX=1;entryY=0.5;entryDx=0;entryDy=0;" parent="1" source="Ocl6EnnyxfNxjE2hLtgI-1" target="Ocl6EnnyxfNxjE2hLtgI-10" edge="1">
          <mxGeometry width="50" height="50" relative="1" as="geometry">
            <mxPoint x="730" y="1160" as="sourcePoint" />
            <mxPoint x="780" y="1110" as="targetPoint" />
            <Array as="points">
              <mxPoint x="1130" y="1010" />
              <mxPoint x="1130" y="1105" />
            </Array>
          </mxGeometry>
        </mxCell>
        <mxCell id="Ocl6EnnyxfNxjE2hLtgI-14" value="Yes" style="text;html=1;strokeColor=none;fillColor=default;align=center;verticalAlign=middle;whiteSpace=wrap;rounded=0;" parent="1" vertex="1">
          <mxGeometry x="1120" y="1046" width="30" height="30" as="geometry" />
        </mxCell>
        <mxCell id="Ocl6EnnyxfNxjE2hLtgI-16" value="Do you want to Sign Out?" style="rhombus;whiteSpace=wrap;html=1;" parent="1" vertex="1">
          <mxGeometry x="140" y="950" width="100" height="100" as="geometry" />
        </mxCell>
        <mxCell id="Ocl6EnnyxfNxjE2hLtgI-17" value="" style="endArrow=classic;html=1;rounded=0;exitX=0.5;exitY=1;exitDx=0;exitDy=0;entryX=0;entryY=0.5;entryDx=0;entryDy=0;" parent="1" source="Ocl6EnnyxfNxjE2hLtgI-16" target="Ocl6EnnyxfNxjE2hLtgI-10" edge="1">
          <mxGeometry width="50" height="50" relative="1" as="geometry">
            <mxPoint x="400" y="940" as="sourcePoint" />
            <mxPoint x="450" y="890" as="targetPoint" />
            <Array as="points">
              <mxPoint x="190" y="1105" />
            </Array>
          </mxGeometry>
        </mxCell>
        <mxCell id="Ocl6EnnyxfNxjE2hLtgI-19" value="" style="endArrow=classic;html=1;rounded=0;exitX=0;exitY=0.5;exitDx=0;exitDy=0;" parent="1" source="LXjmZv8IaE4nXNf4DQ2T-12" edge="1">
          <mxGeometry width="50" height="50" relative="1" as="geometry">
            <mxPoint x="-10" y="473" as="sourcePoint" />
            <mxPoint x="50" y="450" as="targetPoint" />
          </mxGeometry>
        </mxCell>
        <mxCell id="Ocl6EnnyxfNxjE2hLtgI-21" value="Admin Page" style="rounded=0;whiteSpace=wrap;html=1;" parent="1" vertex="1">
          <mxGeometry x="-50" y="423" width="100" height="50" as="geometry" />
        </mxCell>
        <mxCell id="Ocl6EnnyxfNxjE2hLtgI-23" value="View Dashboard" style="rounded=0;whiteSpace=wrap;html=1;" parent="1" vertex="1">
          <mxGeometry x="-190" y="567" width="100" height="50" as="geometry" />
        </mxCell>
        <mxCell id="Ocl6EnnyxfNxjE2hLtgI-24" value="Manage Citizen Profiles" style="rounded=0;whiteSpace=wrap;html=1;" parent="1" vertex="1">
          <mxGeometry x="-190" y="654" width="100" height="50" as="geometry" />
        </mxCell>
        <mxCell id="Ocl6EnnyxfNxjE2hLtgI-25" value="Manage Tax Transactions" style="rounded=0;whiteSpace=wrap;html=1;" parent="1" vertex="1">
          <mxGeometry x="-190" y="741" width="100" height="50" as="geometry" />
        </mxCell>
        <mxCell id="Ocl6EnnyxfNxjE2hLtgI-26" value="View Transaction History" style="rounded=0;whiteSpace=wrap;html=1;" parent="1" vertex="1">
          <mxGeometry x="-190" y="830" width="100" height="50" as="geometry" />
        </mxCell>
        <mxCell id="Ocl6EnnyxfNxjE2hLtgI-27" value="Yes" style="text;html=1;strokeColor=none;fillColor=default;align=center;verticalAlign=middle;whiteSpace=wrap;rounded=0;" parent="1" vertex="1">
          <mxGeometry x="82" y="435" width="30" height="30" as="geometry" />
        </mxCell>
        <mxCell id="Ocl6EnnyxfNxjE2hLtgI-29" value="" style="endArrow=classic;html=1;rounded=0;endSize=6;" parent="1" edge="1">
          <mxGeometry width="50" height="50" relative="1" as="geometry">
            <mxPoint x="-20" y="540" as="sourcePoint" />
            <mxPoint x="-190" y="592" as="targetPoint" />
            <Array as="points">
              <mxPoint x="-220" y="540" />
              <mxPoint x="-220" y="592" />
            </Array>
          </mxGeometry>
        </mxCell>
        <mxCell id="Ocl6EnnyxfNxjE2hLtgI-30" value="" style="endArrow=classic;html=1;rounded=0;entryX=0;entryY=0.5;entryDx=0;entryDy=0;" parent="1" target="Ocl6EnnyxfNxjE2hLtgI-24" edge="1">
          <mxGeometry width="50" height="50" relative="1" as="geometry">
            <mxPoint x="-220" y="590" as="sourcePoint" />
            <mxPoint x="10" y="620" as="targetPoint" />
            <Array as="points">
              <mxPoint x="-220" y="680" />
            </Array>
          </mxGeometry>
        </mxCell>
        <mxCell id="Ocl6EnnyxfNxjE2hLtgI-31" value="" style="endArrow=classic;html=1;rounded=0;entryX=0.004;entryY=0.613;entryDx=0;entryDy=0;entryPerimeter=0;" parent="1" target="Ocl6EnnyxfNxjE2hLtgI-25" edge="1">
          <mxGeometry width="50" height="50" relative="1" as="geometry">
            <mxPoint x="-220" y="680" as="sourcePoint" />
            <mxPoint x="20" y="740" as="targetPoint" />
            <Array as="points">
              <mxPoint x="-220" y="772" />
            </Array>
          </mxGeometry>
        </mxCell>
        <mxCell id="Ocl6EnnyxfNxjE2hLtgI-32" value="" style="endArrow=classic;html=1;rounded=0;entryX=0.004;entryY=0.613;entryDx=0;entryDy=0;entryPerimeter=0;" parent="1" edge="1">
          <mxGeometry width="50" height="50" relative="1" as="geometry">
            <mxPoint x="-220" y="768" as="sourcePoint" />
            <mxPoint x="-190" y="860" as="targetPoint" />
            <Array as="points">
              <mxPoint x="-220" y="860" />
            </Array>
          </mxGeometry>
        </mxCell>
        <mxCell id="Ocl6EnnyxfNxjE2hLtgI-34" value="" style="endArrow=none;html=1;rounded=0;" parent="1" edge="1">
          <mxGeometry width="50" height="50" relative="1" as="geometry">
            <mxPoint x="-90" y="595" as="sourcePoint" />
            <mxPoint x="-50" y="595" as="targetPoint" />
          </mxGeometry>
        </mxCell>
        <mxCell id="Ocl6EnnyxfNxjE2hLtgI-35" value="" style="endArrow=none;html=1;rounded=0;" parent="1" edge="1">
          <mxGeometry width="50" height="50" relative="1" as="geometry">
            <mxPoint x="-90" y="678.62" as="sourcePoint" />
            <mxPoint x="-50" y="678.62" as="targetPoint" />
          </mxGeometry>
        </mxCell>
        <mxCell id="Ocl6EnnyxfNxjE2hLtgI-36" value="" style="endArrow=none;html=1;rounded=0;" parent="1" edge="1">
          <mxGeometry width="50" height="50" relative="1" as="geometry">
            <mxPoint x="-90" y="770" as="sourcePoint" />
            <mxPoint x="-50" y="770" as="targetPoint" />
          </mxGeometry>
        </mxCell>
        <mxCell id="Ocl6EnnyxfNxjE2hLtgI-37" value="" style="endArrow=none;html=1;rounded=0;" parent="1" edge="1">
          <mxGeometry width="50" height="50" relative="1" as="geometry">
            <mxPoint x="-90" y="860" as="sourcePoint" />
            <mxPoint x="-50" y="860" as="targetPoint" />
          </mxGeometry>
        </mxCell>
        <mxCell id="Ocl6EnnyxfNxjE2hLtgI-38" value="" style="endArrow=classic;html=1;rounded=0;entryX=0.5;entryY=0;entryDx=0;entryDy=0;entryPerimeter=0;" parent="1" edge="1" target="Ocl6EnnyxfNxjE2hLtgI-39">
          <mxGeometry width="50" height="50" relative="1" as="geometry">
            <mxPoint x="-50" y="594" as="sourcePoint" />
            <mxPoint x="-50.5" y="944" as="targetPoint" />
          </mxGeometry>
        </mxCell>
        <mxCell id="Ocl6EnnyxfNxjE2hLtgI-39" value="Save to Database" style="shape=cylinder3;whiteSpace=wrap;html=1;boundedLbl=1;backgroundOutline=1;size=15;" parent="1" vertex="1">
          <mxGeometry x="-84" y="990" width="67" height="71" as="geometry" />
        </mxCell>
        <mxCell id="Ocl6EnnyxfNxjE2hLtgI-40" value="" style="endArrow=classic;html=1;rounded=0;exitX=-0.007;exitY=0.53;exitDx=0;exitDy=0;exitPerimeter=0;" parent="1" edge="1" source="Ocl6EnnyxfNxjE2hLtgI-39">
          <mxGeometry width="50" height="50" relative="1" as="geometry">
            <mxPoint x="-90" y="1028" as="sourcePoint" />
            <mxPoint x="-20" y="510" as="targetPoint" />
            <Array as="points">
              <mxPoint x="-210" y="1028" />
              <mxPoint x="-210" y="510" />
            </Array>
          </mxGeometry>
        </mxCell>
        <mxCell id="Ocl6EnnyxfNxjE2hLtgI-42" value="Yes" style="text;html=1;strokeColor=none;fillColor=default;align=center;verticalAlign=middle;whiteSpace=wrap;rounded=0;" parent="1" vertex="1">
          <mxGeometry x="229" y="1092" width="30" height="30" as="geometry" />
        </mxCell>
        <mxCell id="Ocl6EnnyxfNxjE2hLtgI-43" value="" style="endArrow=classic;html=1;rounded=0;entryX=0.5;entryY=1;entryDx=0;entryDy=0;exitX=0;exitY=0.5;exitDx=0;exitDy=0;" parent="1" source="Ocl6EnnyxfNxjE2hLtgI-16" target="Ocl6EnnyxfNxjE2hLtgI-21" edge="1">
          <mxGeometry width="50" height="50" relative="1" as="geometry">
            <mxPoint x="60" y="880" as="sourcePoint" />
            <mxPoint x="20" y="760" as="targetPoint" />
            <Array as="points">
              <mxPoint x="60" y="1000" />
              <mxPoint x="60" y="510" />
              <mxPoint y="510" />
            </Array>
          </mxGeometry>
        </mxCell>
        <mxCell id="Ocl6EnnyxfNxjE2hLtgI-46" value="No" style="text;html=1;align=center;verticalAlign=middle;whiteSpace=wrap;rounded=0;fillColor=default;" parent="1" vertex="1">
          <mxGeometry x="82" y="990" width="40" height="20" as="geometry" />
        </mxCell>
        <mxCell id="Ocl6EnnyxfNxjE2hLtgI-48" value="No" style="text;html=1;align=center;verticalAlign=middle;whiteSpace=wrap;rounded=0;fillColor=default;direction=south;" parent="1" vertex="1">
          <mxGeometry x="530" y="980" width="20" height="40" as="geometry" />
        </mxCell>
        <mxCell id="Ocl6EnnyxfNxjE2hLtgI-49" value="" style="endArrow=classic;html=1;rounded=0;exitX=0.5;exitY=1;exitDx=0;exitDy=0;entryX=0.5;entryY=0;entryDx=0;entryDy=0;" parent="1" source="Ocl6EnnyxfNxjE2hLtgI-10" target="Ocl6EnnyxfNxjE2hLtgI-11" edge="1">
          <mxGeometry width="50" height="50" relative="1" as="geometry">
            <mxPoint x="330" y="1090" as="sourcePoint" />
            <mxPoint x="380" y="1040" as="targetPoint" />
          </mxGeometry>
        </mxCell>
        <mxCell id="_jMz0licpTJPvaoammQv-4" value="" style="endArrow=none;html=1;rounded=0;entryX=0.25;entryY=1;entryDx=0;entryDy=0;" edge="1" parent="1">
          <mxGeometry width="50" height="50" relative="1" as="geometry">
            <mxPoint x="-20" y="540" as="sourcePoint" />
            <mxPoint x="-20" y="473" as="targetPoint" />
          </mxGeometry>
        </mxCell>
        <mxCell id="_jMz0licpTJPvaoammQv-6" value="" style="endArrow=classic;html=1;rounded=0;entryX=0.5;entryY=0;entryDx=0;entryDy=0;" edge="1" parent="1" target="Ocl6EnnyxfNxjE2hLtgI-16">
          <mxGeometry width="50" height="50" relative="1" as="geometry">
            <mxPoint x="80" y="900" as="sourcePoint" />
            <mxPoint x="250" y="900" as="targetPoint" />
            <Array as="points">
              <mxPoint x="190" y="900" />
            </Array>
          </mxGeometry>
        </mxCell>
        <mxCell id="_jMz0licpTJPvaoammQv-7" value="" style="endArrow=none;html=1;rounded=0;" edge="1" parent="1">
          <mxGeometry width="50" height="50" relative="1" as="geometry">
            <mxPoint x="80" y="900" as="sourcePoint" />
            <mxPoint x="80" y="500" as="targetPoint" />
          </mxGeometry>
        </mxCell>
        <mxCell id="_jMz0licpTJPvaoammQv-8" value="" style="endArrow=none;html=1;rounded=0;" edge="1" parent="1">
          <mxGeometry width="50" height="50" relative="1" as="geometry">
            <mxPoint x="24" y="500" as="sourcePoint" />
            <mxPoint x="80" y="500" as="targetPoint" />
          </mxGeometry>
        </mxCell>
        <mxCell id="_jMz0licpTJPvaoammQv-9" value="" style="endArrow=none;html=1;rounded=0;entryX=0.75;entryY=1;entryDx=0;entryDy=0;" edge="1" parent="1" target="Ocl6EnnyxfNxjE2hLtgI-21">
          <mxGeometry width="50" height="50" relative="1" as="geometry">
            <mxPoint x="25" y="500" as="sourcePoint" />
            <mxPoint x="110" y="480" as="targetPoint" />
          </mxGeometry>
        </mxCell>
        <mxCell id="_jMz0licpTJPvaoammQv-10" value="Change Account Settings" style="rounded=0;whiteSpace=wrap;html=1;" vertex="1" parent="1">
          <mxGeometry x="-190" y="920" width="100" height="50" as="geometry" />
        </mxCell>
        <mxCell id="_jMz0licpTJPvaoammQv-11" value="" style="endArrow=classic;html=1;rounded=0;entryX=0;entryY=0.5;entryDx=0;entryDy=0;" edge="1" parent="1" target="_jMz0licpTJPvaoammQv-10">
          <mxGeometry width="50" height="50" relative="1" as="geometry">
            <mxPoint x="-220" y="945" as="sourcePoint" />
            <mxPoint x="-200" y="970" as="targetPoint" />
          </mxGeometry>
        </mxCell>
        <mxCell id="_jMz0licpTJPvaoammQv-13" value="" style="endArrow=none;html=1;rounded=0;" edge="1" parent="1">
          <mxGeometry width="50" height="50" relative="1" as="geometry">
            <mxPoint x="-220" y="946" as="sourcePoint" />
            <mxPoint x="-220" y="860" as="targetPoint" />
          </mxGeometry>
        </mxCell>
        <mxCell id="_jMz0licpTJPvaoammQv-14" value="" style="endArrow=none;html=1;rounded=0;exitX=1;exitY=0.5;exitDx=0;exitDy=0;" edge="1" parent="1" source="_jMz0licpTJPvaoammQv-10">
          <mxGeometry width="50" height="50" relative="1" as="geometry">
            <mxPoint x="-90" y="980" as="sourcePoint" />
            <mxPoint x="-50" y="945" as="targetPoint" />
          </mxGeometry>
        </mxCell>
        <mxCell id="_jMz0licpTJPvaoammQv-15" value="" style="endArrow=none;html=1;rounded=0;entryX=0.5;entryY=1;entryDx=0;entryDy=0;" edge="1" parent="1" target="LXjmZv8IaE4nXNf4DQ2T-86">
          <mxGeometry width="50" height="50" relative="1" as="geometry">
            <mxPoint x="580" y="910" as="sourcePoint" />
            <mxPoint x="540" y="840" as="targetPoint" />
          </mxGeometry>
        </mxCell>
        <mxCell id="LXjmZv8IaE4nXNf4DQ2T-92" value="No" style="text;html=1;align=center;verticalAlign=middle;whiteSpace=wrap;rounded=0;fillColor=default;" parent="1" vertex="1">
          <mxGeometry x="561" y="794" width="40" height="20" as="geometry" />
        </mxCell>
        <mxCell id="_jMz0licpTJPvaoammQv-23" value="" style="endArrow=classic;html=1;rounded=0;exitX=0.25;exitY=1;exitDx=0;exitDy=0;entryX=0;entryY=0.5;entryDx=0;entryDy=0;" edge="1" parent="1" source="LXjmZv8IaE4nXNf4DQ2T-17" target="_jMz0licpTJPvaoammQv-25">
          <mxGeometry width="50" height="50" relative="1" as="geometry">
            <mxPoint x="230" y="580" as="sourcePoint" />
            <mxPoint x="400" y="920" as="targetPoint" />
            <Array as="points">
              <mxPoint x="365" y="490" />
              <mxPoint x="280" y="490" />
              <mxPoint x="280" y="820" />
              <mxPoint x="280" y="1000" />
            </Array>
          </mxGeometry>
        </mxCell>
        <mxCell id="_jMz0licpTJPvaoammQv-25" value="Do you want to Sign Out?" style="rhombus;whiteSpace=wrap;html=1;" vertex="1" parent="1">
          <mxGeometry x="400" y="951" width="100" height="100" as="geometry" />
        </mxCell>
        <mxCell id="_jMz0licpTJPvaoammQv-30" value="" style="endArrow=classic;html=1;rounded=0;exitX=0.5;exitY=1;exitDx=0;exitDy=0;entryX=0.5;entryY=0;entryDx=0;entryDy=0;" edge="1" parent="1" source="_jMz0licpTJPvaoammQv-25" target="Ocl6EnnyxfNxjE2hLtgI-10">
          <mxGeometry width="50" height="50" relative="1" as="geometry">
            <mxPoint x="480" y="1030" as="sourcePoint" />
            <mxPoint x="530" y="980" as="targetPoint" />
          </mxGeometry>
        </mxCell>
        <mxCell id="_jMz0licpTJPvaoammQv-31" value="Yes" style="text;html=1;align=center;verticalAlign=middle;whiteSpace=wrap;rounded=0;fillColor=default;" vertex="1" parent="1">
          <mxGeometry x="455" y="1051" width="40" height="20" as="geometry" />
        </mxCell>
        <mxCell id="_jMz0licpTJPvaoammQv-33" value="" style="endArrow=classic;html=1;rounded=0;exitX=1;exitY=0.5;exitDx=0;exitDy=0;entryX=0.75;entryY=1;entryDx=0;entryDy=0;" edge="1" parent="1" source="_jMz0licpTJPvaoammQv-25" target="LXjmZv8IaE4nXNf4DQ2T-17">
          <mxGeometry width="50" height="50" relative="1" as="geometry">
            <mxPoint x="500" y="910" as="sourcePoint" />
            <mxPoint x="400" y="490" as="targetPoint" />
            <Array as="points">
              <mxPoint x="520" y="1001" />
              <mxPoint x="520" y="490" />
              <mxPoint x="415" y="490" />
            </Array>
          </mxGeometry>
        </mxCell>
        <mxCell id="_jMz0licpTJPvaoammQv-35" value="" style="endArrow=classic;html=1;rounded=0;entryX=0.5;entryY=0;entryDx=0;entryDy=0;" edge="1" parent="1" target="_jMz0licpTJPvaoammQv-25">
          <mxGeometry width="50" height="50" relative="1" as="geometry">
            <mxPoint x="580" y="910" as="sourcePoint" />
            <mxPoint x="500" y="850" as="targetPoint" />
            <Array as="points">
              <mxPoint x="450" y="910" />
            </Array>
          </mxGeometry>
        </mxCell>
      </root>
    </mxGraphModel>
  </diagram>
</mxfile>
